<svg width="64" height="64" viewBox="0 0 64 64" fill="none" xmlns="http://www.w3.org/2000/svg">
<g clip-path="url(#clip0_180_5161)">
<rect y="0.398682" width="63.0688" height="63.0688" rx="31.5344" fill="black"/>
<path d="M26.6727 38.7692C27.4487 38.7692 28.003 38.2396 28.003 37.3896V34.9999H29.4073C30.1341 34.9999 30.6145 34.5318 30.6145 33.842C30.6145 33.1522 30.1341 32.6841 29.4073 32.6841H28.003V22.6079C28.003 21.2775 27.1777 20.5261 25.7365 20.5261C24.5786 20.5261 23.8765 21.0188 22.7925 22.6202C20.5013 25.9461 18.2963 29.2473 17.0399 31.5015C16.5718 32.3145 16.424 32.8073 16.424 33.4355C16.424 34.384 17.0522 34.9999 18.0377 34.9999H25.3546V37.3896C25.3546 38.2396 25.9089 38.7692 26.6727 38.7692ZM25.3793 32.721H19.0108V32.6471C20.452 30.0726 22.3121 27.2887 25.33 22.9651H25.3793V32.721ZM33.8049 38.5352H43.6224C44.3738 38.5352 44.8419 38.0671 44.8419 37.3773C44.8419 36.6751 44.3738 36.2071 43.6224 36.2071H36.2438V36.1455L40.4813 31.8957C43.4746 28.9024 44.4231 27.4735 44.4231 25.4533C44.4231 22.5216 42.021 20.4276 38.6212 20.4276C35.0859 20.4276 33.0288 22.6079 32.647 24.4802C32.5977 24.665 32.573 24.8498 32.573 25.0592C32.573 25.749 33.0165 26.2294 33.7925 26.2294C34.47 26.2294 34.7903 25.8968 35.0367 25.3425C35.6526 23.6056 36.8598 22.7064 38.6089 22.7064C40.3951 22.7064 41.7008 23.9382 41.7008 25.6258C41.7008 27.0424 41.1341 27.9539 38.8183 30.319L33.2629 35.9361C32.6593 36.5396 32.4991 36.8353 32.4991 37.3773C32.4991 38.0671 32.9672 38.5352 33.8049 38.5352Z" fill="#F2F2F2"/>
<path d="M23.0041 55.6207C23.3798 55.6207 23.5892 55.436 23.737 54.9555L24.316 53.2187H27.3585L27.9375 54.9555C28.0792 55.4298 28.3009 55.6207 28.6766 55.6207C29.0769 55.6207 29.3418 55.3867 29.3418 55.0171C29.3418 54.8632 29.3048 54.6969 29.2371 54.4936L26.9274 47.9589C26.718 47.3368 26.4162 47.072 25.8557 47.072C25.2953 47.072 24.9935 47.343 24.7779 47.9589L22.4682 54.4936C22.3882 54.7277 22.3512 54.8878 22.3512 55.0356C22.3512 55.3928 22.6161 55.6207 23.0041 55.6207ZM24.6486 52.147L25.8065 48.5932H25.8742L27.026 52.147H24.6486ZM36.1044 56.4892C36.4493 56.4892 36.6772 56.2243 36.6772 55.9102C36.6772 55.7316 36.6218 55.5961 36.4432 55.3313L36.0675 54.8139C36.7265 54.198 37.096 53.2495 37.096 51.9622V50.8043C37.096 48.4331 35.7472 46.9734 33.6161 46.9734C31.4543 46.9734 30.1363 48.4269 30.1363 50.8043V51.9622C30.1363 54.3027 31.4112 55.7254 33.6161 55.7254C34.1212 55.7254 34.5708 55.6392 34.965 55.4791L35.353 56.0026C35.5932 56.3537 35.8149 56.4892 36.1044 56.4892ZM31.5282 52.0115V50.7982C31.5282 49.166 32.3289 48.1683 33.6161 48.1683C34.8172 48.1683 35.6979 49.166 35.6979 50.7982V52.0115C35.6979 52.8368 35.507 53.348 35.1929 53.7484L34.8788 53.3111C34.694 53.077 34.5215 52.9908 34.3368 52.9908C34.0165 52.9908 33.7763 53.2249 33.7763 53.5451C33.7763 53.7237 33.8687 53.8962 33.9857 54.0686L34.2628 54.4443C34.0534 54.5306 33.8194 54.5737 33.5792 54.5737C32.3104 54.5552 31.5282 53.6006 31.5282 52.0115ZM39.3749 55.6084C39.8122 55.6084 40.0708 55.3251 40.0708 54.8447V47.8418C40.0708 47.3614 39.8122 47.0781 39.3749 47.0781C38.9314 47.0781 38.6727 47.3614 38.6727 47.8418V54.8447C38.6727 55.3251 38.9376 55.6084 39.3749 55.6084Z" fill="#67E151"/>
<path d="M9.14364 48.9964C7.65761 50.1289 5.51736 49.8502 4.55053 48.2515C2.10957 44.2151 0.597533 39.6694 0.144204 34.9454C-0.4172 29.0952 0.667423 23.2045 3.27571 17.9379C5.88399 12.6713 9.91214 8.23843 14.9057 5.13933C19.8993 2.04024 25.6595 0.398272 31.5366 0.398682C37.4137 0.399092 43.1737 2.04186 48.1668 5.14165C53.1599 8.24144 57.1875 12.6749 59.795 17.9418C62.4026 23.2088 63.4864 29.0996 62.9241 34.9497C62.4702 39.6737 60.9575 44.2192 58.516 48.2552C57.5489 49.8538 55.4086 50.1322 53.9227 48.9995V48.9995C52.4369 47.8669 52.1736 45.753 53.0934 44.1267C54.7963 41.116 55.856 37.7704 56.1893 34.3025C56.6309 29.7076 55.7796 25.0806 53.7315 20.9437C51.6834 16.8069 48.52 13.3246 44.5982 10.8899C40.6764 8.4552 36.1522 7.16489 31.5361 7.16457C26.92 7.16425 22.3956 8.45392 18.4735 10.8881C14.5513 13.3223 11.3874 16.804 9.33877 20.9406C7.29011 25.0773 6.4382 29.7041 6.87915 34.2991C7.21195 37.767 8.27119 41.1128 9.97362 44.1237C10.8932 45.7501 10.6297 47.864 9.14364 48.9964V48.9964Z" fill="url(#paint0_angular_180_5161)"/>
<circle cx="4.47794" cy="39.5644" r="4.09947" fill="#29D6AB" stroke="black" stroke-width="1.76593"/>
</g>
<defs>
<radialGradient id="paint0_angular_180_5161" cx="0" cy="0" r="1" gradientUnits="userSpaceOnUse" gradientTransform="translate(31.5344 31.9331) rotate(142.883) scale(31.8089)">
<stop stop-color="#5AC8FA"/>
<stop offset="0.109689" stop-color="#04DE71"/>
<stop offset="0.19138" stop-color="#FFE620"/>
<stop offset="0.287925" stop-color="#FF9500"/>
<stop offset="0.424347" stop-color="#FA114F"/>
<stop offset="0.501599" stop-color="#AA00FF"/>
</radialGradient>
<clipPath id="clip0_180_5161">
<rect y="0.398682" width="63.0688" height="63.0688" rx="31.5344" fill="white"/>
</clipPath>
</defs>
</svg>
